#N canvas 178 91 504 392 12;
#X obj 29 316 netsend -u -b;
#X msg 53 71 disconnect;
#X obj 29 347 tgl 15 0 empty empty connected? 17 7 0 10 #fcfcfc #000000
#000000 0 1;
#X floatatom 113 129 5 0 0 0 - - - 0;
#X msg 29 42 connect localhost 7777;
#X text 201 41 <- start here;
#X floatatom 138 228 5 0 0 0 - - - 0;
#X obj 138 259 oscformat /thoscytest2/hello;
#X obj 113 161 oscformat /thoscytest1/temperature;
#X text 109 104 send key/value to "thocsy test 1": temperature f;
#X text 134 203 send key/value to "thoscy test 2": hello f;
#X connect 0 0 2 0;
#X connect 1 0 0 0;
#X connect 3 0 8 0;
#X connect 4 0 0 0;
#X connect 6 0 7 0;
#X connect 7 0 0 0;
#X connect 8 0 0 0;
